IF YOU WANT A PROPER SOURCE ENCODE (better as maxspeed release this time) TAKE 
http://thepiratebay.org/torrent/6013267/Legend_Of_The_Guardians.2010.DvdRip.Xvid__1337x_-Noir
 
http://leetleech.org/images/49966936774964122204.jpg

Screens: 
http://leetleech.org/images/47010064397467695100.jpg 
http://leetleech.org/images/81554863363387298360.jpg 
http://leetleech.org/images/09638449386679511545.jpg 
http://leetleech.org/images/55086341332259596592.jpg

Alternative: 
http://www.postimg.com/image/26000/25380.jpg 
http://www.postimg.com/image/26000/25376.jpg 
http://www.postimg.com/image/26000/25377.jpg 
http://www.postimg.com/image/26000/25378.jpg

ScreenCaps: 
http://www.postimg.com/26000/25379.jpg

Format                           : AVI
Format/Info                      : Audio Video Interleave
Format profile                   : OpenDML
File size                        : 1.23 GiB
Duration                         : 1h 36mn
Overall bit rate                 : 1 816 Kbps
Writing application              : VirtualDubMod 1.5.10.2 (build 2542/release)
Writing library                  : VirtualDubMod build 2542/release
Original source form             : MAX TORRENTZ
Copyright                        : SIGISMUNT

Video
ID                               : 0
Format                           : MPEG-4 Visual
Format profile                   : AdvancedSimple@L5
Format settings, BVOP            : Yes
Format settings, QPel            : No
Format settings, GMC             : No warppoints
Format settings, Matrix          : Custom
Codec ID                         : XVID
Codec ID/Hint                    : XviD
Duration                         : 1h 36mn
Bit rate                         : 1 619 Kbps
Width                            : 720 pixels
Height                           : 304 pixels
Display aspect ratio             : 2.35:1
Frame rate                       : 23.976 fps
Resolution                       : 24 bits
Colorimetry                      : 4:2:0
Scan type                        : Progressive
Bits/(Pixel*Frame)               : 0.308
Stream size                      : 1.09 GiB (89%)
Writing library                  : XviD 1.2.1 (UTC 2008-12-04)

Audio
ID                               : 1
Format                           : AC-3
Format/Info                      : Audio Coding 3
Codec ID                         : 2000
Duration                         : 1h 36mn
Bit rate mode                    : Constant
Bit rate                         : 192 Kbps
Channel(s)                       : 2 channels
Channel positions                : L R
Sampling rate                    : 48.0 KHz
Stream size                      : 133 MiB (11%)
Alignment                        : Aligned on interleaves
Interleave, duration             : 64 ms (1.53 video frames)
Interleave, preload duration     : 192 ms
 
Sources:Original DVD+AC3 audio(perfect sync,video have very few and small pixelated 
areas but it's not a big deal,at least it's not same as boarded and shaking source) , sample is included 
http://www.imdb.com/title/tt1219342/

Legend of the Guardians (2010) DVDRip XviD-MAX Torrent Free Download 
http://thepiratebay.org/user/extremezone/0/7

How To Get Your Maxspeed (uTorrent)

Torrent Client - Preferences - Bandwidth - Number of connections - Set aprox. 500 for each 
Torrent Client - Preferences - BiTorrent - Protocol Encryption - Forced
Bandwidth Allocation - High (Set download/upload limit - Unlimited)
Stop Other Active Torrents - Start downloading and wait for connections.
Enjoy and Seed for at least 1:1 ratio. Don't forget to say thanks/leave reviews.
Greets to all actual/future p2p/scene QUALITY groups and affiliate websites.
Don't trust IMDb robot or bad ratings,always watch some trailers first.
Ignore stupid comments/fake/mislabeled/no-DVDrips/CAM/TS/RAR uploads.
Please spread this release/torrent to your friends/forums/etc.
If you need translation subs visit some subtitles sites.
Report if you see online streaming or other spam links.
Recommended movie player VLC PLAYER.

